ffmpeg version 3.4.2 Copyright (c) 2000-2018 the FFmpeg developers
  built with Apple LLVM version 9.0.0 (clang-900.0.39.2)
  configuration: --prefix=/usr/local/Cellar/ffmpeg/3.4.2 --enable-shared --enable-pthreads --enable-version3 --enable-hardcoded-tables --enable-avresample --cc=clang --host-cflags= --host-ldflags= --disable-jack --enable-gpl --enable-libmp3lame --enable-libx264 --enable-libxvid --enable-opencl --enable-videotoolbox --disable-lzma
  libavutil      55. 78.100 / 55. 78.100
  libavcodec     57.107.100 / 57.107.100
  libavformat    57. 83.100 / 57. 83.100
  libavdevice    57. 10.100 / 57. 10.100
  libavfilter     6.107.100 /  6.107.100
  libavresample   3.  7.  0 /  3.  7.  0
  libswscale      4.  8.100 /  4.  8.100
  libswresample   2.  9.100 /  2.  9.100
  libpostproc    54.  7.100 / 54.  7.100
[image2pipe @ 0x7fec10002600] Could not find codec parameters for stream 0 (Video: ppm, none): unspecified size
Consider increasing the value for the 'analyzeduration' and 'probesize' options
Input #0, image2pipe, from 'pipe:':
  Duration: N/A, bitrate: N/A
    Stream #0:0: Video: ppm, none, 20 tbr, 20 tbn, 20 tbc
Output #0, mp4, to './mission_records/1427615e-7037-430b-b503-f5a91326ae24/video.mp4':
Output file #0 does not contain any stream
Exiting normally, received signal 2.
n.org/x264.html - options: cabac=1 ref=3 deblock=1:0:0 analyse=0x3:0x113 me=hex subme=7 psy=1 psy_rd=1.00:0.00 mixed_ref=1 me_range=16 chroma_me=1 trellis=1 8x8dct=1 cqm=0 deadzone=21,11 fast_pskip=1 chroma_qp_offset=-2 threads=7 lookahead_threads=1 sliced_threads=0 nr=0 decimate=1 interlaced=0 bluray_compat=0 constrained_intra=0 bframes=3 b_pyramid=2 b_adapt=1 b_bias=0 direct=1 weightb=1 open_gop=0 weightp=2 keyint=250 keyint_min=20 scenecut=40 intra_refresh=0 rc_lookahead=40 rc=abr mbtree=1 bitrate=400 ratetol=1.0 qcomp=0.60 qpmin=0 qpmax=69 qpstep=4 ip_ratio=1.40 aq=1:1.00
Output #0, mp4, to './mission_records/a35fdf0c-7582-410b-a658-0692a044149b/video.mp4':
  Metadata:
    encoder         : Lavf57.83.100
    Stream #0:0: Video: h264 (libx264) (avc1 / 0x31637661), yuv420p, 320x240, q=-1--1, 400 kb/s, 20 fps, 10240 tbn, 20 tbc
    Metadata:
      encoder         : Lavc57.107.100 libx264
    Side data:
      cpb: bitrate max/min/avg: 0/0/400000 buffer size: 0 vbv_delay: -1
frame=    5 fps=0.0 q=-1.0 Lsize=      20kB time=00:00:00.10 bitrate=1677.5kbits/s speed=1.65x    
video:20kB audio:0kB subtitle:0kB other streams:0kB global headers:0kB muxing overhead: 4.448868%
[libx264 @ 0x7f985b000c00] frame I:1     Avg QP:25.19  size:  7030
[libx264 @ 0x7f985b000c00] frame P:1     Avg QP:28.44  size:  3637
[libx264 @ 0x7f985b000c00] frame B:3     Avg QP:27.98  size:  2908
[libx264 @ 0x7f985b000c00] consecutive B-frames: 20.0%  0.0%  0.0% 80.0%
[libx264 @ 0x7f985b000c00] mb I  I16..4: 14.7% 52.0% 33.3%
[libx264 @ 0x7f985b000c00] mb P  I16..4:  5.3% 18.0% 11.7%  P16..4: 17.7% 23.0% 21.7%  0.0%  0.0%    skip: 2.7%
[libx264 @ 0x7f985b000c00] mb B  I16..4:  5.6% 11.4%  4.7%  B16..8: 27.6% 16.9%  4.7%  direct: 4.6%  skip:24.7%  L0:40.2% L1:54.4% BI: 5.4%
[libx264 @ 0x7f985b000c00] final ratefactor: 27.00
[libx264 @ 0x7f985b000c00] 8x8 transform intra:52.2% inter:48.6%
[libx264 @ 0x7f985b000c00] coded y,uvDC,uvAC intra: 67.7% 60.8% 47.3% inter: 37.0% 22.1% 7.3%
[libx264 @ 0x7f985b000c00] i16 v,h,dc,p: 59% 32%  7%  2%
[libx264 @ 0x7f985b000c00] i8 v,h,dc,ddl,ddr,vr,hd,vl,hu: 15% 14% 24%  8%  7%  4% 10%  7% 12%
[libx264 @ 0x7f985b000c00] i4 v,h,dc,ddl,ddr,vr,hd,vl,hu: 16% 27% 15%  6%  9%  5%  9%  3%  9%
[libx264 @ 0x7f985b000c00] i8c dc,h,v,p: 57% 27% 13%  3%
[libx264 @ 0x7f985b000c00] Weighted P-Frames: Y:0.0% UV:0.0%
[libx264 @ 0x7f985b000c00] ref B L0: 91.5%  8.5%
[libx264 @ 0x7f985b000c00] ref B L1: 90.2%  9.8%
[libx264 @ 0x7f985b000c00] kb/s:620.51
00] Weighted P-Frames: Y:16.7% UV:8.3%
[libx264 @ 0x7fa1df004400] ref P L0: 43.6% 16.9% 22.0% 10.8%  6.7%
[libx264 @ 0x7fa1df004400] ref B L0: 61.6% 29.3%  9.0%
[libx264 @ 0x7fa1df004400] ref B L1: 82.7% 17.3%
[libx264 @ 0x7fa1df004400] kb/s:381.72
% 28% 13%  3%
[libx264 @ 0x7fd1eb001200] Weighted P-Frames: Y:43.5% UV:34.8%
[libx264 @ 0x7fd1eb001200] ref P L0: 34.6% 18.5% 16.9% 22.5%  7.5%
[libx264 @ 0x7fd1eb001200] ref B L0: 58.5% 37.9%  3.7%
[libx264 @ 0x7fd1eb001200] ref B L1: 75.9% 24.1%
[libx264 @ 0x7fd1eb001200] kb/s:381.78
@ 0x7ff71f000c00] ref P L0: 40.9% 12.8% 20.7% 18.0%  7.7%
[libx264 @ 0x7ff71f000c00] ref B L0: 58.2% 31.0% 10.8%
[libx264 @ 0x7ff71f000c00] ref B L1: 83.9% 16.1%
[libx264 @ 0x7ff71f000c00] kb/s:389.85
v,p: 54% 28% 15%  3%
[libx264 @ 0x7f8296801800] Weighted P-Frames: Y:32.3% UV:22.6%
[libx264 @ 0x7f8296801800] ref P L0: 44.1% 14.5% 18.4% 17.1%  6.0%
[libx264 @ 0x7f8296801800] ref B L0: 57.7% 32.7%  9.7%
[libx264 @ 0x7f8296801800] ref B L1: 81.8% 18.2%
[libx264 @ 0x7f8296801800] kb/s:393.22
9%  1.7%
[libx264 @ 0x7f8e7c002800] ref B L1: 97.0%  3.0%
[libx264 @ 0x7f8e7c002800] kb/s:416.47
 i8 v,h,dc,ddl,ddr,vr,hd,vl,hu:  4% 20% 37%  5%  6%  3% 10%  4% 10%
[libx264 @ 0x7fcc1a003e00] i4 v,h,dc,ddl,ddr,vr,hd,vl,hu:  6% 25% 21%  7%  8%  4% 13%  4% 11%
[libx264 @ 0x7fcc1a003e00] i8c dc,h,v,p: 68% 27%  2%  3%
[libx264 @ 0x7fcc1a003e00] Weighted P-Frames: Y:0.0% UV:0.0%
[libx264 @ 0x7fcc1a003e00] ref P L0: 64.9%  3.4% 21.4% 10.3%
[libx264 @ 0x7fcc1a003e00] ref B L0: 87.2% 10.2%  2.6%
[libx264 @ 0x7fcc1a003e00] ref B L1: 96.1%  3.9%
[libx264 @ 0x7fcc1a003e00] kb/s:409.27
